<?xml version="1.0" encoding="UTF-8"?>
<svg width="30px" height="30px" viewBox="0 0 30 30" version="1.1" xmlns="http://www.w3.org/2000/svg" xmlns:xlink="http://www.w3.org/1999/xlink">
    <!-- Generator: Sketch 52.2 (67145) - http://www.bohemiancoding.com/sketch -->
    <title>logo_product_elasticsearch_30</title>
    <desc>Created with Sketch.</desc>
    <g id="logo_product_elasticsearch_30" stroke="none" stroke-width="1" fill="none" fill-rule="evenodd">
        <g id="Group-11" transform="translate(1.000000, 0.000000)">
            <path d="M0,15 C0,16.388 0.203,17.725 0.556,19 L19,19 C21.209,19 23,17.209 23,15 C23,12.791 21.209,11 19,11 L0.556,11 C0.203,12.275 0,13.612 0,15" id="Fill-1" fill="#343741"></path>
            <path d="M25.3301,6.8613 C25.7831,6.4353 26.2111,5.9823 26.6051,5.5003 C23.8541,2.1433 19.6791,0.0003 15.0001,0.0003 C9.2481,0.0003 4.2721,3.2473 1.7601,8.0003 L22.3371,8.0003 C23.4401,8.0003 24.5251,7.6173 25.3301,6.8613" id="Fill-3" fill="#FEC514"></path>
            <path d="M22.3369,22 L1.7599,22 C4.2729,26.753 9.2479,30 14.9999,30 C19.6789,30 23.8549,27.856 26.6059,24.5 C26.2109,24.018 25.7829,23.564 25.3299,23.139 C24.5249,22.383 23.4409,22 22.3369,22" id="Fill-5" fill="#00BFB3"></path>
            <path d="M11.1035,19 L0.5555,19 L11.1035,19 Z" id="Fill-7" fill="#FFC100"></path>
        </g>
    </g>
</svg>