<?xml version="1.0" encoding="UTF-8" standalone="yes"?><svg xmlns="http://www.w3.org/2000/svg" xmlns:xlink="http://www.w3.org/1999/xlink" height="256px" preserveAspectRatio="xMidYMid" style="zoom: 1;" version="1.1" viewBox="0 0 256 256" width="256px"><defs><radialGradient cx="1.55750275e-05%" cy="99.999994%" fx="1.55750275e-05%" fy="99.999994%" gradientTransform="translate(0.000000,1.000000),scale(0.832531,1.000000),scale(1.000000,0.832531),translate(-0.000000,-1.000000)" id="radialGradient-1" r="120.115697%"><stop offset="0%" stop-color="#00C812"></stop><stop offset="100%" stop-color="#006E00"></stop></radialGradient><radialGradient cx="5.95703125e-06%" cy="-0.000385453422%" fx="5.95703125e-06%" fy="-0.000385453422%" gradientTransform="translate(0.000000,-0.000004),scale(1.000000,0.832534),rotate(90.000000),scale(1.000000,0.832531),translate(-0.000000,0.000004)" id="radialGradient-2" r="120.115697%"><stop offset="0%" stop-color="#56AFFD"></stop><stop offset="100%" stop-color="#04A3FF"></stop></radialGradient><radialGradient cx="99.9999844%" cy="5.95703126e-06%" fx="99.9999844%" fy="5.95703126e-06%" gradientTransform="translate(1.000000,0.000000),scale(0.832531,1.000000),rotate(180.000000),scale(1.000000,0.832531),translate(-1.000000,-0.000000)" id="radialGradient-3" r="120.115697%"><stop offset="0%" stop-color="#DF1F00"></stop><stop offset="100%" stop-color="#560D00"></stop></radialGradient><radialGradient cx="99.999994%" cy="100.000694%" fx="99.999994%" fy="100.000694%" gradientTransform="translate(1.000000,1.000007),scale(1.000000,0.832536),rotate(-90.000000),scale(1.000000,0.832531),translate(-1.000000,-1.000007)" id="radialGradient-4" r="120.115697%"><stop offset="0%" stop-color="#00FFFD"></stop><stop offset="100%" stop-color="#00DAFF"></stop></radialGradient><radialGradient cx="0.000354796786%" cy="99.999994%" fx="0.000354796786%" fy="99.999994%" gradientTransform="translate(0.000004,1.000000),scale(1.000000,0.573107),scale(1.000000,1.744881),translate(-0.000004,-1.000000)" id="radialGradient-5" r="99.9996399%"><stop offset="0%" stop-color="#008200"></stop><stop offset="100%" stop-color="#007500"></stop></radialGradient><radialGradient cx="5.95703125e-06%" cy="9.08223426e-05%" fx="5.95703125e-06%" fy="9.08223426e-05%" gradientTransform="translate(0.000000,0.000001),scale(0.573105,1.000000),rotate(90.000000),scale(1.000000,1.744881),translate(-0.000000,-0.000001)" id="radialGradient-6" r="99.9999039%"><stop offset="0%" stop-color="#3166D4"></stop><stop offset="100%" stop-color="#1A509E"></stop></radialGradient><radialGradient cx="100.000355%" cy="5.95703126e-06%" fx="100.000355%" fy="5.95703126e-06%" gradientTransform="translate(1.000004,0.000000),scale(1.000000,0.573103),rotate(180.000000),scale(1.000000,1.744881),translate(-1.000004,-0.000000)" id="radialGradient-7" r="100.00035%"><stop offset="0%" stop-color="#8E1400"></stop><stop offset="100%" stop-color="#4B0B00"></stop></radialGradient><radialGradient cx="99.999994%" cy="100.001042%" fx="99.999994%" fy="100.001042%" gradientTransform="translate(1.000000,1.000010),scale(0.573109,1.000000),rotate(-90.000000),scale(1.000000,1.744881),translate(-1.000000,-1.000010)" id="radialGradient-8" r="99.9993325%"><stop offset="0%" stop-color="#0090C4"></stop><stop offset="100%" stop-color="#005D8C"></stop></radialGradient><radialGradient cx="4.88281244e-07%" cy="99.9989015%" fx="4.88281244e-07%" fy="99.9989015%" gradientTransform="translate(0.000000,0.999989),scale(1.000000,0.679068),scale(1.000000,1.472586),translate(-0.000000,-0.999989)" id="radialGradient-9" r="99.9999915%"><stop offset="0%" stop-color="#00CD1C"></stop><stop offset="100%" stop-color="#00E950"></stop></radialGradient><radialGradient cx="-6.74214414e-06%" cy="-1.18815104e-05%" fx="-6.74214414e-06%" fy="-1.18815104e-05%" gradientTransform="translate(-0.000000,-0.000000),scale(0.679078,1.000000),rotate(90.000000),scale(1.000000,1.472586),translate(0.000000,0.000000)" id="radialGradient-10" r="99.9999915%"><stop offset="0%" stop-color="#B1C8FD"></stop><stop offset="100%" stop-color="#7EC3FD"></stop></radialGradient><radialGradient cx="99.9999871%" cy="-6.74214411e-06%" fx="99.9999871%" fy="-6.74214411e-06%" gradientTransform="translate(1.000000,-0.000000),scale(1.000000,0.679078),rotate(180.000000),scale(1.000000,1.472586),translate(-1.000000,0.000000)" id="radialGradient-11" r="99.9999915%"><stop offset="0%" stop-color="#E12A00"></stop><stop offset="100%" stop-color="#B62F00"></stop></radialGradient><radialGradient cx="100.000007%" cy="99.9999995%" fx="100.000007%" fy="99.9999995%" gradientTransform="translate(1.000000,1.000000),scale(0.679089,1.000000),rotate(-90.000000),scale(1.000000,1.472586),translate(-1.000000,-1.000000)" id="radialGradient-12" r="99.998364%"><stop offset="0%" stop-color="#00B6DD"></stop><stop offset="100%" stop-color="#00FFFF"></stop></radialGradient></defs><g transform="scale(0.8 0.8)"><path d="M179.2,230.4 L256,230.4 L133.12,128 C131.433,165.193 147.807,201.58 179.2,230.4" fill="url(#radialGradient-1)"></path><path d="M25.6,179.2 L25.6,256 L128,133.12 C126.254,133.041 124.517,133.002 122.775,133.002 C87.415,133.004 53.067,149.281 25.6,179.2" fill="url(#radialGradient-2)"></path><path d="M0,25.6 L122.88,128 C124.567,90.808 108.193,54.42 76.8,25.6 L0,25.6 Z" fill="url(#radialGradient-3)"></path><path d="M230.4,0 L128,122.879 C165.193,124.567 201.58,108.192 230.4,76.799 L230.4,0 Z" fill="url(#radialGradient-4)"></path><path d="M128,128 C116.521,157.755 118.255,188.086 133.12,217.601 C148.48,225.28 161.28,230.4 179.2,230.4 C147.807,201.58 131.433,165.193 133.12,128 L128,128 Z" fill="url(#radialGradient-5)"></path><path d="M38.4,133.12 C30.721,148.481 25.6,161.28 25.6,179.2 C54.419,147.807 90.807,131.434 128,133.12 L128,128 C115.056,123.007 102.006,120.514 88.96,120.514 C72.014,120.515 55.076,124.721 38.4,133.12" fill="url(#radialGradient-6)"></path><path d="M122.88,128 L128,128 C139.478,98.245 137.745,67.913 122.88,38.4 C107.52,30.72 94.721,25.6 76.8,25.6 C108.193,54.42 124.567,90.808 122.88,128" fill="url(#radialGradient-7)"></path><path d="M128,122.879 L128,128 C157.755,139.478 188.086,137.744 217.6,122.879 C225.28,107.521 230.4,94.721 230.4,76.799 C201.58,108.192 165.193,124.567 128,122.879" fill="url(#radialGradient-8)"></path><path d="M71.68,166.4 L133.12,217.601 C118.255,188.086 116.521,157.755 128,128 C126.224,127.408 124.142,127.124 121.842,127.124 C104.243,127.125 73.944,143.759 71.68,166.4" fill="url(#radialGradient-9)"></path><path d="M38.4,133.12 C67.914,118.255 98.245,116.522 128,128 C133.12,112.641 115.2,74.24 89.6,71.68 L38.4,133.12 Z" fill="url(#radialGradient-10)"></path><path d="M128,128 C143.36,133.12 181.759,115.2 184.32,89.6 L122.88,38.4 C137.745,67.913 139.478,98.245 128,128" fill="url(#radialGradient-11)"></path><path d="M128,128 C122.88,143.361 140.8,181.76 166.4,184.32 L217.6,122.879 C188.086,137.744 157.755,139.478 128,128" fill="url(#radialGradient-12)"></path><path d="M127.9998,121.6004 C131.5348,121.6004 134.3998,124.4654 134.3998,127.9994 C134.3998,131.5354 131.5348,134.4004 127.9998,134.4004 C124.4658,134.4004 121.6008,131.5354 121.6008,127.9994 C121.6008,124.4654 124.4658,121.6004 127.9998,121.6004" fill="#000000"></path></g><g transform="translate(140 140) scale(0.2 0.2)"><path d="M398.901,325.619 c-0.133,-0.033 -0.267,-0.063 -0.401,-0.089 l-66.292,-12.762 l-21.256,-35.427 c-0.088,-2.028 -0.298,-4.016 -0.622,-5.952 C331.421,245.818 343,211.906 343,175.5 v-80 c0,-19.627 -10.1,-40.248 -27.71,-56.577 c-16.656,-15.444 -38.305,-25.722 -61.453,-29.296 C251.517,3.985 245.968,0 239.5,0 h-16 c-6.468,0 -12.017,3.985 -14.337,9.627 c-23.149,3.574 -44.797,13.852 -61.453,29.296 C130.1,55.252 120,75.873 120,95.5 v80 c0,36.41 11.579,70.317 32.671,95.889 c-0.323,1.936 -0.534,3.924 -0.622,5.952 l-21.256,35.427 L64.5,325.53 c-0.135,0.026 -0.269,0.056 -0.401,0.089 C35.779,332.699 16,358.032 16,387.224 V439.5 c0,12.958 10.542,23.5 23.5,23.5 h384 c12.958,0 23.5,-10.542 23.5,-23.5 v-52.276 C447,358.032 427.221,332.699 398.901,325.619  z M127,328.774 l2.256,-0.434 c7.308,25.486 45.85,44.725 94.744,46.52 V448 h-97 V328.774  z M112,448 H95 V334.935 l17,-3.272 V448  z M239,374.86 c48.894,-1.795 87.436,-21.034 94.744,-46.52 L344,330.314 V448 H239 V374.86  z M359,333.202 l17,3.272 V448 h-17 V333.202  z M248,279.5 c0,0.168 0.009,0.333 0.01,0.5 h-33.02 c0.002,-0.167 0.01,-0.332 0.01,-0.5 c0,-13.502 -5.434,-25.439 -13.7,-32.566 L219.25,223 h24.5 l17.95,23.934 C253.434,254.061 248,265.998 248,279.5  z M183.5,255 c8.944,0 16.5,11.22 16.5,24.5 s-7.556,24.5 -16.5,24.5 S167,292.78 167,279.5 S174.556,255 183.5,255  z M135,175.5 V103 h64.5 c2.841,0 5.438,-1.605 6.708,-4.146 l5.79,-11.579 c0.085,-0.17 0.256,-0.275 0.446,-0.275 h38.111 c0.19,0 0.361,0.105 0.447,0.276 l5.789,11.578 c1.271,2.54 3.867,4.146 6.708,4.146 H328 v72.5 c0,13.909 -1.961,27.605 -5.663,40.5 H257.25 l-3.75,-5 c-1.416,-1.889 -3.64,-3 -6,-3 h-32 c-2.36,0 -4.584,1.111 -6,3 l-3.75,5 h-65.088 C136.961,203.105 135,189.41 135,175.5  z M279.5,255 c8.944,0 16.5,11.22 16.5,24.5 s-7.556,24.5 -16.5,24.5 S263,292.78 263,279.5 S270.556,255 279.5,255  z M279.5,240 c-1.357,0 -2.691,0.12 -4.002,0.33 L268.5,231 h48.59 c-3.547,8.521 -7.906,16.535 -13.015,23.831 C298.298,245.799 289.431,240 279.5,240  z M327.344,88 h-59.209 l-3.715,-7.432 c-1.956,-3.913 -5.377,-6.724 -9.42,-7.922 V25.03 c18.899,3.564 36.445,12.239 50.091,24.892 C317.32,61.261 325.144,74.793 327.344,88  z M223.5,15 h16 c0.275,0 0.5,0.225 0.5,0.5 v0.815 c0,0.001 0,0.002 0,0.002 V72 h-17 V16.318 c0,-0.001 0,-0.002 0,-0.002 V15.5 C223,15.225 223.225,15 223.5,15  z M157.909,49.922 C171.555,37.269 189.101,28.594 208,25.03 v47.616 c-4.042,1.198 -7.464,4.009 -9.419,7.921 L194.865,88 h-59.209 C137.856,74.793 145.68,61.261 157.909,49.922  z M145.909,231 H194.5 l-6.998,9.33 c-1.312,-0.21 -2.646,-0.33 -4.002,-0.33 c-9.931,0 -18.797,5.799 -24.575,14.831 C153.816,247.534 149.456,239.521 145.909,231  z M156.307,299.4 c5.472,11.712 15.609,19.6 27.193,19.6 c12.984,0 24.155,-9.903 28.97,-24 h38.06 c4.815,14.097 15.987,24 28.97,24 c11.584,0 21.722,-7.888 27.193,-19.6 l13.196,21.994 c-1.054,9.078 -9.618,18.218 -23.861,25.34 C278.917,355.288 256.001,360 231.5,360 s-47.417,-4.712 -64.528,-13.267 c-14.243,-7.122 -22.808,-16.262 -23.861,-25.34 L156.307,299.4  z M31,439.5 v-52.276 c0,-22.229 15.018,-41.529 36.545,-47.004 L80,337.822 V448 H39.5 C34.813,448 31,444.187 31,439.5  z M432,439.5 c0,4.687 -3.813,8.5 -8.5,8.5 H391 V339.362 l4.455,0.858 C416.982,345.694 432,364.994 432,387.224 V439.5  z "></path><path d="M223,159.5c0-21.78-17.72-39.5-39.5-39.5S144,137.72,144,159.5s17.72,39.5,39.5,39.5S223,181.28,223,159.5z M159,159.5   c0-13.51,10.99-24.5,24.5-24.5s24.5,10.99,24.5,24.5S197.01,184,183.5,184S159,173.01,159,159.5z"></path><path d="M279.5,199c21.78,0,39.5-17.72,39.5-39.5S301.28,120,279.5,120S240,137.72,240,159.5S257.72,199,279.5,199z M279.5,135   c13.51,0,24.5,10.99,24.5,24.5S293.01,184,279.5,184S255,173.01,255,159.5S265.99,135,279.5,135z"></path></g></svg>