<?xml version="1.0" encoding="UTF-8" standalone="yes"?><svg xmlns="http://www.w3.org/2000/svg" xmlns:xlink="http://www.w3.org/1999/xlink" height="256px" preserveAspectRatio="xMidYMid" style="zoom: 1;" version="1.1" viewBox="0 0 256 256" width="256px"><defs><radialGradient cx="1.55750275e-05%" cy="99.999994%" fx="1.55750275e-05%" fy="99.999994%" gradientTransform="translate(0.000000,1.000000),scale(0.832531,1.000000),scale(1.000000,0.832531),translate(-0.000000,-1.000000)" id="radialGradient-1" r="120.115697%"><stop offset="0%" stop-color="#00C812"></stop><stop offset="100%" stop-color="#006E00"></stop></radialGradient><radialGradient cx="5.95703125e-06%" cy="-0.000385453422%" fx="5.95703125e-06%" fy="-0.000385453422%" gradientTransform="translate(0.000000,-0.000004),scale(1.000000,0.832534),rotate(90.000000),scale(1.000000,0.832531),translate(-0.000000,0.000004)" id="radialGradient-2" r="120.115697%"><stop offset="0%" stop-color="#56AFFD"></stop><stop offset="100%" stop-color="#04A3FF"></stop></radialGradient><radialGradient cx="99.9999844%" cy="5.95703126e-06%" fx="99.9999844%" fy="5.95703126e-06%" gradientTransform="translate(1.000000,0.000000),scale(0.832531,1.000000),rotate(180.000000),scale(1.000000,0.832531),translate(-1.000000,-0.000000)" id="radialGradient-3" r="120.115697%"><stop offset="0%" stop-color="#DF1F00"></stop><stop offset="100%" stop-color="#560D00"></stop></radialGradient><radialGradient cx="99.999994%" cy="100.000694%" fx="99.999994%" fy="100.000694%" gradientTransform="translate(1.000000,1.000007),scale(1.000000,0.832536),rotate(-90.000000),scale(1.000000,0.832531),translate(-1.000000,-1.000007)" id="radialGradient-4" r="120.115697%"><stop offset="0%" stop-color="#00FFFD"></stop><stop offset="100%" stop-color="#00DAFF"></stop></radialGradient><radialGradient cx="0.000354796786%" cy="99.999994%" fx="0.000354796786%" fy="99.999994%" gradientTransform="translate(0.000004,1.000000),scale(1.000000,0.573107),scale(1.000000,1.744881),translate(-0.000004,-1.000000)" id="radialGradient-5" r="99.9996399%"><stop offset="0%" stop-color="#008200"></stop><stop offset="100%" stop-color="#007500"></stop></radialGradient><radialGradient cx="5.95703125e-06%" cy="9.08223426e-05%" fx="5.95703125e-06%" fy="9.08223426e-05%" gradientTransform="translate(0.000000,0.000001),scale(0.573105,1.000000),rotate(90.000000),scale(1.000000,1.744881),translate(-0.000000,-0.000001)" id="radialGradient-6" r="99.9999039%"><stop offset="0%" stop-color="#3166D4"></stop><stop offset="100%" stop-color="#1A509E"></stop></radialGradient><radialGradient cx="100.000355%" cy="5.95703126e-06%" fx="100.000355%" fy="5.95703126e-06%" gradientTransform="translate(1.000004,0.000000),scale(1.000000,0.573103),rotate(180.000000),scale(1.000000,1.744881),translate(-1.000004,-0.000000)" id="radialGradient-7" r="100.00035%"><stop offset="0%" stop-color="#8E1400"></stop><stop offset="100%" stop-color="#4B0B00"></stop></radialGradient><radialGradient cx="99.999994%" cy="100.001042%" fx="99.999994%" fy="100.001042%" gradientTransform="translate(1.000000,1.000010),scale(0.573109,1.000000),rotate(-90.000000),scale(1.000000,1.744881),translate(-1.000000,-1.000010)" id="radialGradient-8" r="99.9993325%"><stop offset="0%" stop-color="#0090C4"></stop><stop offset="100%" stop-color="#005D8C"></stop></radialGradient><radialGradient cx="4.88281244e-07%" cy="99.9989015%" fx="4.88281244e-07%" fy="99.9989015%" gradientTransform="translate(0.000000,0.999989),scale(1.000000,0.679068),scale(1.000000,1.472586),translate(-0.000000,-0.999989)" id="radialGradient-9" r="99.9999915%"><stop offset="0%" stop-color="#00CD1C"></stop><stop offset="100%" stop-color="#00E950"></stop></radialGradient><radialGradient cx="-6.74214414e-06%" cy="-1.18815104e-05%" fx="-6.74214414e-06%" fy="-1.18815104e-05%" gradientTransform="translate(-0.000000,-0.000000),scale(0.679078,1.000000),rotate(90.000000),scale(1.000000,1.472586),translate(0.000000,0.000000)" id="radialGradient-10" r="99.9999915%"><stop offset="0%" stop-color="#B1C8FD"></stop><stop offset="100%" stop-color="#7EC3FD"></stop></radialGradient><radialGradient cx="99.9999871%" cy="-6.74214411e-06%" fx="99.9999871%" fy="-6.74214411e-06%" gradientTransform="translate(1.000000,-0.000000),scale(1.000000,0.679078),rotate(180.000000),scale(1.000000,1.472586),translate(-1.000000,0.000000)" id="radialGradient-11" r="99.9999915%"><stop offset="0%" stop-color="#E12A00"></stop><stop offset="100%" stop-color="#B62F00"></stop></radialGradient><radialGradient cx="100.000007%" cy="99.9999995%" fx="100.000007%" fy="99.9999995%" gradientTransform="translate(1.000000,1.000000),scale(0.679089,1.000000),rotate(-90.000000),scale(1.000000,1.472586),translate(-1.000000,-1.000000)" id="radialGradient-12" r="99.998364%"><stop offset="0%" stop-color="#00B6DD"></stop><stop offset="100%" stop-color="#00FFFF"></stop></radialGradient></defs><g transform="scale(0.8 0.8)"><path d="M179.2,230.4 L256,230.4 L133.12,128 C131.433,165.193 147.807,201.58 179.2,230.4" fill="url(#radialGradient-1)"></path><path d="M25.6,179.2 L25.6,256 L128,133.12 C126.254,133.041 124.517,133.002 122.775,133.002 C87.415,133.004 53.067,149.281 25.6,179.2" fill="url(#radialGradient-2)"></path><path d="M0,25.6 L122.88,128 C124.567,90.808 108.193,54.42 76.8,25.6 L0,25.6 Z" fill="url(#radialGradient-3)"></path><path d="M230.4,0 L128,122.879 C165.193,124.567 201.58,108.192 230.4,76.799 L230.4,0 Z" fill="url(#radialGradient-4)"></path><path d="M128,128 C116.521,157.755 118.255,188.086 133.12,217.601 C148.48,225.28 161.28,230.4 179.2,230.4 C147.807,201.58 131.433,165.193 133.12,128 L128,128 Z" fill="url(#radialGradient-5)"></path><path d="M38.4,133.12 C30.721,148.481 25.6,161.28 25.6,179.2 C54.419,147.807 90.807,131.434 128,133.12 L128,128 C115.056,123.007 102.006,120.514 88.96,120.514 C72.014,120.515 55.076,124.721 38.4,133.12" fill="url(#radialGradient-6)"></path><path d="M122.88,128 L128,128 C139.478,98.245 137.745,67.913 122.88,38.4 C107.52,30.72 94.721,25.6 76.8,25.6 C108.193,54.42 124.567,90.808 122.88,128" fill="url(#radialGradient-7)"></path><path d="M128,122.879 L128,128 C157.755,139.478 188.086,137.744 217.6,122.879 C225.28,107.521 230.4,94.721 230.4,76.799 C201.58,108.192 165.193,124.567 128,122.879" fill="url(#radialGradient-8)"></path><path d="M71.68,166.4 L133.12,217.601 C118.255,188.086 116.521,157.755 128,128 C126.224,127.408 124.142,127.124 121.842,127.124 C104.243,127.125 73.944,143.759 71.68,166.4" fill="url(#radialGradient-9)"></path><path d="M38.4,133.12 C67.914,118.255 98.245,116.522 128,128 C133.12,112.641 115.2,74.24 89.6,71.68 L38.4,133.12 Z" fill="url(#radialGradient-10)"></path><path d="M128,128 C143.36,133.12 181.759,115.2 184.32,89.6 L122.88,38.4 C137.745,67.913 139.478,98.245 128,128" fill="url(#radialGradient-11)"></path><path d="M128,128 C122.88,143.361 140.8,181.76 166.4,184.32 L217.6,122.879 C188.086,137.744 157.755,139.478 128,128" fill="url(#radialGradient-12)"></path><path d="M127.9998,121.6004 C131.5348,121.6004 134.3998,124.4654 134.3998,127.9994 C134.3998,131.5354 131.5348,134.4004 127.9998,134.4004 C124.4658,134.4004 121.6008,131.5354 121.6008,127.9994 C121.6008,124.4654 124.4658,121.6004 127.9998,121.6004" fill="#000000"></path></g><g transform="translate(150 150) scale(0.4 0.4)"><path d="M85.996,171.989 c-0.497,0.006 -0.996,-0.004 -1.495,-0.013 c-0.148,0.007 -0.304,0.003 -0.444,0.01 c-0.296,0 -0.59,-0.015 -0.882,-0.043 c-28.567,-0.926 -53.651,-15.85 -68.608,-38.112 c-0.168,-0.185 -0.309,-0.395 -0.416,-0.624 C5.189,119.614 -0.023,103.338 0.002,85.872 l0,0 c0.033,-22.97 9.009,-44.552 25.274,-60.77 C40.902,9.521 61.462,0.682 83.42,0.04 c0.293,-0.026 0.628,-0.008 0.884,-0.04 c0.151,0 0.302,0.004 0.452,0.012 c0.455,-0.007 0.907,-0.008 1.362,-0.009 c22.97,0.032 44.552,9.008 60.771,25.273 c16.219,16.265 25.133,37.873 25.1,60.843 c-0.025,17.448 -5.276,33.695 -14.261,47.256 c-0.115,0.257 -0.273,0.49 -0.464,0.692 C141.792,156.935 115.613,171.987 85.996,171.989 z M83.079,166.872 c0.483,0.04 0.968,0.069 1.455,0.089 c4.753,-0.512 9.843,-8.871 13.709,-22.584 c0.851,-3.017 1.627,-6.228 2.328,-9.605 l-32.919,-0.047 c0.69,3.38 1.458,6.593 2.3,9.612 C73.64,157.563 78.48,165.821 83.079,166.872 z M105.671,134.779 c-0.777,3.866 -1.65,7.529 -2.615,10.954 c-2.558,9.073 -5.596,15.887 -9.011,20.295 c13.778,-3.291 25.815,-14.827 33.902,-31.217 L105.671,134.779 z M43.905,134.69 c7.113,14.521 17.33,25.252 29.125,29.84 c-2.972,-4.405 -5.629,-10.724 -7.895,-18.851 c-0.955,-3.427 -1.818,-7.095 -2.583,-10.962 L43.905,134.69 z M133.394,134.819 c-5.463,11.753 -12.836,21.39 -21.441,27.904 c15.499,-5.258 28.908,-15.089 38.609,-27.88 L133.394,134.819 z M21.29,134.658 c9.665,12.818 23.043,22.688 38.526,27.99 c-8.586,-6.539 -15.93,-16.196 -21.36,-27.966 L21.29,134.658 z M135.551,129.822 l18.513,0.026 c7.732,-11.96 12.399,-26.078 12.883,-41.237 l-23.325,-0.033 C143.311,103.605 140.405,117.675 135.551,129.822 z M106.602,129.78 l23.624,0.034 c5.033,-11.964 8.074,-26.084 8.396,-41.243 l-28.545,-0.041 C109.935,103.286 108.733,117.408 106.602,129.78 z M66.707,129.724 l34.822,0.05 c2.176,-12.285 3.404,-26.427 3.547,-41.251 l-41.798,-0.06 C63.379,103.287 64.567,117.432 66.707,129.724 z M41.641,129.688 l19.994,0.028 c-2.096,-12.38 -3.257,-26.503 -3.356,-41.26 L33.362,88.42 C33.641,103.58 36.642,117.709 41.641,129.688 z M17.803,129.653 l18.512,0.026 c-4.819,-12.161 -7.685,-26.238 -7.953,-41.267 L5.037,88.38 C5.477,103.54 10.104,117.671 17.803,129.653 z M143.63,83.578 l23.325,0.033 c-0.411,-14.333 -4.53,-28.034 -11.902,-39.996 l-18.809,-0.026 C140.829,55.689 143.38,69.347 143.63,83.578 z M110.084,83.53 l28.545,0.041 c-0.261,-14.336 -2.944,-28.028 -7.752,-39.99 l-23.938,-0.034 C108.902,55.616 109.988,69.279 110.084,83.53 z M63.286,83.463 l41.798,0.06 c-0.097,-14.313 -1.208,-27.993 -3.211,-39.983 l-35.261,-0.051 C64.574,55.473 63.424,69.15 63.286,83.463 z M33.37,83.42 l24.916,0.036 c0.136,-14.251 1.262,-27.911 3.259,-39.975 l-20.309,-0.029 C36.393,55.4 33.671,69.085 33.37,83.42 z M5.043,83.38 l23.325,0.033 c0.29,-14.23 2.881,-27.881 7.501,-39.969 l-18.809,-0.026 C9.654,55.358 5.496,69.047 5.043,83.38 z M134.192,38.586 l17.512,0.024 c-2.5,-3.45 -5.289,-6.729 -8.355,-9.804 c-8.871,-8.896 -19.445,-15.478 -30.991,-19.438 c5.423,4.141 10.419,9.602 14.811,16.269 C129.81,29.649 132.157,33.986 134.192,38.586 z M106.058,38.545 l22.635,0.033 c-1.698,-3.594 -3.602,-7.002 -5.701,-10.19 c-7.945,-12.065 -17.931,-19.795 -28.718,-22.402 c3.402,4.419 6.421,11.241 8.953,20.321 C104.287,30.109 105.233,34.205 106.058,38.545 z M67.533,38.49 l33.433,0.048 c-0.755,-3.85 -1.608,-7.491 -2.555,-10.889 C94.585,13.931 89.52,5.559 84.77,5.027 c-0.488,0.018 -0.976,0.046 -1.462,0.085 c-4.602,1.041 -9.463,9.284 -13.188,22.497 C69.163,31.003 68.299,34.643 67.533,38.49 z M43.434,38.455 l19.006,0.027 c0.838,-4.338 1.795,-8.431 2.866,-12.229 c2.29,-8.123 4.965,-14.435 7.951,-18.831 c-8.994,3.466 -17.282,10.582 -24.093,20.86 C47.056,31.464 45.142,34.867 43.434,38.455 z M20.424,38.423 l17.512,0.024 c2.048,-4.594 4.407,-8.923 7.061,-12.927 c4.411,-6.656 9.422,-12.102 14.857,-16.228 c-11.556,3.928 -22.15,10.479 -31.046,19.35 C25.732,31.709 22.933,34.979 20.424,38.423 z"></path></g></svg>