<?xml version="1.0" encoding="UTF-8" standalone="yes"?><svg xmlns="http://www.w3.org/2000/svg" xmlns:xlink="http://www.w3.org/1999/xlink" width="256px" height="256px" viewBox="0 0 256 256" version="1.1" preserveAspectRatio="xMidYMid" style="zoom: 1;"><defs><radialGradient cx="1.55750275e-05%" cy="99.999994%" fx="1.55750275e-05%" fy="99.999994%" r="120.115697%" gradientTransform="translate(0.000000,1.000000),scale(0.832531,1.000000),scale(1.000000,0.832531),translate(-0.000000,-1.000000)" id="radialGradient-1"><stop stop-color="#00C812" offset="0%"></stop><stop stop-color="#006E00" offset="100%"></stop></radialGradient><radialGradient cx="5.95703125e-06%" cy="-0.000385453422%" fx="5.95703125e-06%" fy="-0.000385453422%" r="120.115697%" gradientTransform="translate(0.000000,-0.000004),scale(1.000000,0.832534),rotate(90.000000),scale(1.000000,0.832531),translate(-0.000000,0.000004)" id="radialGradient-2"><stop stop-color="#56AFFD" offset="0%"></stop><stop stop-color="#04A3FF" offset="100%"></stop></radialGradient><radialGradient cx="99.9999844%" cy="5.95703126e-06%" fx="99.9999844%" fy="5.95703126e-06%" r="120.115697%" gradientTransform="translate(1.000000,0.000000),scale(0.832531,1.000000),rotate(180.000000),scale(1.000000,0.832531),translate(-1.000000,-0.000000)" id="radialGradient-3"><stop stop-color="#DF1F00" offset="0%"></stop><stop stop-color="#560D00" offset="100%"></stop></radialGradient><radialGradient cx="99.999994%" cy="100.000694%" fx="99.999994%" fy="100.000694%" r="120.115697%" gradientTransform="translate(1.000000,1.000007),scale(1.000000,0.832536),rotate(-90.000000),scale(1.000000,0.832531),translate(-1.000000,-1.000007)" id="radialGradient-4"><stop stop-color="#00FFFD" offset="0%"></stop><stop stop-color="#00DAFF" offset="100%"></stop></radialGradient><radialGradient cx="0.000354796786%" cy="99.999994%" fx="0.000354796786%" fy="99.999994%" r="99.9996399%" gradientTransform="translate(0.000004,1.000000),scale(1.000000,0.573107),scale(1.000000,1.744881),translate(-0.000004,-1.000000)" id="radialGradient-5"><stop stop-color="#008200" offset="0%"></stop><stop stop-color="#007500" offset="100%"></stop></radialGradient><radialGradient cx="5.95703125e-06%" cy="9.08223426e-05%" fx="5.95703125e-06%" fy="9.08223426e-05%" r="99.9999039%" gradientTransform="translate(0.000000,0.000001),scale(0.573105,1.000000),rotate(90.000000),scale(1.000000,1.744881),translate(-0.000000,-0.000001)" id="radialGradient-6"><stop stop-color="#3166D4" offset="0%"></stop><stop stop-color="#1A509E" offset="100%"></stop></radialGradient><radialGradient cx="100.000355%" cy="5.95703126e-06%" fx="100.000355%" fy="5.95703126e-06%" r="100.00035%" gradientTransform="translate(1.000004,0.000000),scale(1.000000,0.573103),rotate(180.000000),scale(1.000000,1.744881),translate(-1.000004,-0.000000)" id="radialGradient-7"><stop stop-color="#8E1400" offset="0%"></stop><stop stop-color="#4B0B00" offset="100%"></stop></radialGradient><radialGradient cx="99.999994%" cy="100.001042%" fx="99.999994%" fy="100.001042%" r="99.9993325%" gradientTransform="translate(1.000000,1.000010),scale(0.573109,1.000000),rotate(-90.000000),scale(1.000000,1.744881),translate(-1.000000,-1.000010)" id="radialGradient-8"><stop stop-color="#0090C4" offset="0%"></stop><stop stop-color="#005D8C" offset="100%"></stop></radialGradient><radialGradient cx="4.88281244e-07%" cy="99.9989015%" fx="4.88281244e-07%" fy="99.9989015%" r="99.9999915%" gradientTransform="translate(0.000000,0.999989),scale(1.000000,0.679068),scale(1.000000,1.472586),translate(-0.000000,-0.999989)" id="radialGradient-9"><stop stop-color="#00CD1C" offset="0%"></stop><stop stop-color="#00E950" offset="100%"></stop></radialGradient><radialGradient cx="-6.74214414e-06%" cy="-1.18815104e-05%" fx="-6.74214414e-06%" fy="-1.18815104e-05%" r="99.9999915%" gradientTransform="translate(-0.000000,-0.000000),scale(0.679078,1.000000),rotate(90.000000),scale(1.000000,1.472586),translate(0.000000,0.000000)" id="radialGradient-10"><stop stop-color="#B1C8FD" offset="0%"></stop><stop stop-color="#7EC3FD" offset="100%"></stop></radialGradient><radialGradient cx="99.9999871%" cy="-6.74214411e-06%" fx="99.9999871%" fy="-6.74214411e-06%" r="99.9999915%" gradientTransform="translate(1.000000,-0.000000),scale(1.000000,0.679078),rotate(180.000000),scale(1.000000,1.472586),translate(-1.000000,0.000000)" id="radialGradient-11"><stop stop-color="#E12A00" offset="0%"></stop><stop stop-color="#B62F00" offset="100%"></stop></radialGradient><radialGradient cx="100.000007%" cy="99.9999995%" fx="100.000007%" fy="99.9999995%" r="99.998364%" gradientTransform="translate(1.000000,1.000000),scale(0.679089,1.000000),rotate(-90.000000),scale(1.000000,1.472586),translate(-1.000000,-1.000000)" id="radialGradient-12"><stop stop-color="#00B6DD" offset="0%"></stop><stop stop-color="#00FFFF" offset="100%"></stop></radialGradient></defs><g transform="scale(0.8 0.8)"><path d="M179.2,230.4 L256,230.4 L133.12,128 C131.433,165.193 147.807,201.58 179.2,230.4" fill="url(#radialGradient-1)"></path><path d="M25.6,179.2 L25.6,256 L128,133.12 C126.254,133.041 124.517,133.002 122.775,133.002 C87.415,133.004 53.067,149.281 25.6,179.2" fill="url(#radialGradient-2)"></path><path d="M0,25.6 L122.88,128 C124.567,90.808 108.193,54.42 76.8,25.6 L0,25.6 Z" fill="url(#radialGradient-3)"></path><path d="M230.4,0 L128,122.879 C165.193,124.567 201.58,108.192 230.4,76.799 L230.4,0 Z" fill="url(#radialGradient-4)"></path><path d="M128,128 C116.521,157.755 118.255,188.086 133.12,217.601 C148.48,225.28 161.28,230.4 179.2,230.4 C147.807,201.58 131.433,165.193 133.12,128 L128,128 Z" fill="url(#radialGradient-5)"></path><path d="M38.4,133.12 C30.721,148.481 25.6,161.28 25.6,179.2 C54.419,147.807 90.807,131.434 128,133.12 L128,128 C115.056,123.007 102.006,120.514 88.96,120.514 C72.014,120.515 55.076,124.721 38.4,133.12" fill="url(#radialGradient-6)"></path><path d="M122.88,128 L128,128 C139.478,98.245 137.745,67.913 122.88,38.4 C107.52,30.72 94.721,25.6 76.8,25.6 C108.193,54.42 124.567,90.808 122.88,128" fill="url(#radialGradient-7)"></path><path d="M128,122.879 L128,128 C157.755,139.478 188.086,137.744 217.6,122.879 C225.28,107.521 230.4,94.721 230.4,76.799 C201.58,108.192 165.193,124.567 128,122.879" fill="url(#radialGradient-8)"></path><path d="M71.68,166.4 L133.12,217.601 C118.255,188.086 116.521,157.755 128,128 C126.224,127.408 124.142,127.124 121.842,127.124 C104.243,127.125 73.944,143.759 71.68,166.4" fill="url(#radialGradient-9)"></path><path d="M38.4,133.12 C67.914,118.255 98.245,116.522 128,128 C133.12,112.641 115.2,74.24 89.6,71.68 L38.4,133.12 Z" fill="url(#radialGradient-10)"></path><path d="M128,128 C143.36,133.12 181.759,115.2 184.32,89.6 L122.88,38.4 C137.745,67.913 139.478,98.245 128,128" fill="url(#radialGradient-11)"></path><path d="M128,128 C122.88,143.361 140.8,181.76 166.4,184.32 L217.6,122.879 C188.086,137.744 157.755,139.478 128,128" fill="url(#radialGradient-12)"></path><path d="M127.9998,121.6004 C131.5348,121.6004 134.3998,124.4654 134.3998,127.9994 C134.3998,131.5354 131.5348,134.4004 127.9998,134.4004 C124.4658,134.4004 121.6008,131.5354 121.6008,127.9994 C121.6008,124.4654 124.4658,121.6004 127.9998,121.6004" fill="#000000"></path></g><g transform="translate(230 180) scale(0.008 0.008) rotate(180)"><path d="M4675.3,4595.5 c-147.8,-58.3 -270.6,-193.6 -297.6,-333 c-12.5,-60.4 -22.9,-66.6 -141.5,-91.6 c-624.4,-124.9 -1115.5,-666 -1296.6,-1425.6 c-22.9,-93.7 -47.9,-239.3 -54.1,-322.6 c-12.5,-139.4 -18.7,-151.9 -70.8,-170.7 c-97.8,-33.3 -220.6,-162.3 -276.8,-289.3 c-62.4,-137.4 -97.8,-337.2 -97.8,-557.8 v-149.8 l151.9,-33.3 c81.2,-20.8 195.6,-41.6 249.8,-47.9 c56.2,-6.2 106.1,-25 112.4,-37.5 c4.2,-14.6 25,-108.2 45.8,-208.1 l39.5,-181.1 L2975,626.6 c-43.7,-89.5 -64.5,-160.3 -70.8,-264.3 c-22.9,-339.2 147.8,-757.6 358,-876.2 c16.7,-8.3 54.1,-99.9 83.3,-201.9 c66.6,-235.2 208.1,-524.5 330.9,-691 l95.7,-126.9 l-2.1,-256 c-2.1,-362.1 -20.8,-476.6 -89.5,-576.5 c-116.5,-168.6 -353.8,-301.8 -1034.4,-576.5 c-745.1,-303.9 -1078.1,-493.3 -1361.1,-774.2 C970.7,-4027 789.7,-4422.4 743.9,-4888.6 c-6.2,-74.9 -16.6,-170.7 -22.9,-212.3 l-12.5,-79.1 H5000 h4291.5 l-12.5,79.1 c-6.2,41.6 -16.7,137.4 -22.9,212.3 c-35.4,364.2 -172.7,726.4 -374.6,988.6 c-283,368.4 -680.6,620.2 -1498.5,947 c-711.8,285.1 -988.6,449.5 -1086.4,645.2 c-43.7,85.3 -47.9,120.7 -47.9,443.3 v349.6 l81.1,108.2 c112.4,147.8 251.9,443.3 324.7,682.6 c49.9,170.7 68.7,204 127,243.5 c95.7,62.4 185.2,201.9 249.7,391.3 c45.8,133.2 58.3,204 58.3,372.5 c2.1,191.5 -2.1,218.5 -60.3,333 c-33.3,68.7 -58.3,135.3 -54.1,145.7 c2.1,12.5 27.1,104.1 52,208.1 l45.8,187.3 l93.6,14.6 c50,8.3 160.3,31.2 245.6,49.9 l154,35.4 l-12.5,241.4 c-16.7,320.5 -66.6,482.8 -193.6,624.4 c-52,56.2 -124.9,114.5 -162.4,129 c-68.7,25 -70.8,29.1 -83.2,179 c-47.9,516.1 -297.6,1051 -641,1367.4 c-172.7,162.3 -443.3,303.9 -682.6,362.1 c-145.7,35.4 -156.1,41.6 -168.6,102 c-29.1,141.5 -160.2,285.1 -308,335.1 C5222.7,4628.8 4760.7,4626.7 4675.3,4595.5  z M5181.1,4189.7 c18.7,-12.5 27.1,-216.5 31.2,-793 l6.2,-776.3 l68.7,-60.4 c77,-68.7 174.8,-79.1 251.8,-27 c95.8,68.7 106.2,135.3 106.2,697.2 v524.5 l77,-12.5 c156.1,-25 343.4,-139.4 505.7,-303.9 c266.4,-270.6 418.3,-628.5 460,-1086.4 c29.1,-308 58.3,-370.5 201.9,-435 c54.1,-25 112.4,-52 129,-60.4 c41.6,-22.9 81.2,-106.1 87.4,-191.5 l6.2,-68.7 l-166.5,-27.1 c-607.7,-95.7 -1153,-135.3 -1945.9,-135.3 s-1338.2,39.6 -1945.9,135.3 l-166.5,27.1 l6.2,68.7 c6.3,85.3 45.8,168.6 87.4,191.5 c16.6,8.3 77,35.4 131.1,60.4 c145.7,66.6 166.5,112.4 195.6,416.2 c29.1,303.8 95.7,534.9 220.6,780.5 c158.2,303.8 493.3,586.9 747.2,626.4 l77,12.5 l6.3,-566.1 l6.2,-566.1 l68.7,-60.4 c91.6,-81.1 187.3,-81.1 278.9,0 l68.7,60.4 l6.2,776.3 c4.2,580.7 12.5,780.5 31.2,793 C4852.2,4210.5 5147.8,4210.5 5181.1,4189.7  z M3886.5,1038.7 c426.7,-41.6 1887.7,-33.3 2349.7,12.5 c204,18.7 374.6,33.3 376.7,29.1 c4.2,-4.2 -25,-112.4 -64.5,-243.5 l-68.7,-237.2 l91.6,-87.4 c56.2,-52 95.8,-106.2 95.8,-137.4 c10.4,-170.6 -45.8,-410 -116.6,-484.9 c-27.1,-29.1 -81.2,-56.2 -131.1,-64.5 c-66.6,-10.4 -89.5,-25 -97.8,-58.3 c-4.2,-25 -22.9,-124.9 -41.6,-220.6 c-62.4,-324.7 -231,-672.2 -389.2,-799.2 l-85.3,-66.6 l12.5,-512 l10.4,-512 l62.4,-122.8 c85.3,-168.6 224.8,-318.4 412.1,-445.4 c193.5,-127 360,-208.1 880.4,-418.3 c499.5,-204 734.7,-316.3 938.6,-451.6 c199.8,-131.1 407.9,-335.1 503.7,-493.3 c81.2,-135.3 193.6,-437.1 172.7,-468.3 c-16.7,-27.1 -7579.8,-29.2 -7594.4,-2.1 c-18.7,31.2 49.9,233.1 137.4,401.7 c201.9,389.2 578.6,649.3 1442.3,994.8 c874.1,349.6 1159.2,539 1344.5,894.9 c45.8,89.5 49.9,116.5 56.2,630.6 c6.3,341.3 0,534.9 -12.5,534.9 c-45.8,0 -193.6,176.9 -270.6,328.8 c-99.9,193.5 -160.3,364.2 -189.4,545.3 c-41.6,233.1 -35.4,224.8 -131.1,239.3 c-110.3,18.7 -168.6,83.3 -210.2,235.2 c-68.7,247.7 -56.2,345.5 56.2,449.5 l89.5,85.3 l-58.3,239.3 c-31.2,131.1 -58.3,243.5 -60.4,247.7 c0,4.2 49.9,2.1 110.3,-6.2 C3566,1069.9 3738.8,1053.3 3886.5,1038.7  z "></path></g></svg>